<svg id="PI_icon" xmlns="http://www.w3.org/2000/svg" width="99.81" height="131" viewBox="0 0 99.81 131">
  <path id="Fill_1" data-name="Fill 1" d="M90.453,131H9.357A9.368,9.368,0,0,1,0,121.643V9.357A9.368,9.368,0,0,1,9.357,0H72.986L99.809,26.824v94.819A9.367,9.367,0,0,1,90.453,131ZM9.357,6.238A3.123,3.123,0,0,0,6.238,9.357V121.643a3.122,3.122,0,0,0,3.119,3.118h81.1a3.122,3.122,0,0,0,3.118-3.118V31.19h-15.6a9.368,9.368,0,0,1-9.357-9.357V6.238Zm65.5,4.367V21.833a3.122,3.122,0,0,0,3.118,3.119H89.2Zm0,82.966h-49.9V87.333h49.9V93.57Zm0-18.714h-49.9V68.619h49.9v6.238ZM62.381,56.143H24.953V49.9H62.381v6.237Z" fill="#fdc81d"/>
</svg>
